<svg width="102" height="82" viewBox="0 0 102 82" fill="none" xmlns="http://www.w3.org/2000/svg">
<path d="M0 0L50.6 57.6593L101.7 0H0Z" fill="#23A9E1"/>
<path d="M50.9 0H0V21.9515L50.6 81.9524L50.9 81.5621L101.6 22.6345V0H50.9ZM50.9 55.7081L50.6 56.0983L3.7 1.75612H50.9H98.1L50.9 55.7081Z" fill="#491213"/>
<path d="M50.6 56.0983L50.9 55.7081L78.5 24.1954C71.6 25.0735 66.6 30.1467 59.9 29.0736C56.5 28.4882 56.4 26.6345 55.4 24.6832C54.7 23.2198 53.5 23.4149 51.9 22.8296C50.5 22.2442 49.6 21.171 46.7 21.7564C44.2 22.3418 43.9 26.1467 40.7 25.9516C39 25.854 38.9 23.5125 36.5 20.5856C30.2 13.1709 24.3 14.2441 20.3 21.0734L50.6 56.0983Z" fill="#491213"/>
<path d="M23.3 31.4151C23.8 32.0004 24.2 32.6834 24.1 33.4639C24 34.0493 23.2 34.9273 23.8 35.22C24.5 34.3419 25.3 33.3663 26 32.4883C25.4 32.2931 20.6 26.8296 20.6 26.1467C19.5 26.7321 18.5 27.3175 17.4 27.8053C17.6 28.4882 18.7 27.8053 19.3 27.8053C20.1 27.9028 20.7 28.3906 21.3 28.976C19.6 30.3419 15.4 33.8541 14.9 33.9517C14.7 33.9517 13.8 33.3663 13.8 33.8541C13.8 34.1468 14.7 34.8298 14.8 35.0249C15.5 35.9029 16.3 36.781 17 37.6591C17.6 37.3664 16.9 36.9761 17.2 36.4883C17.5 36.1956 22.1 32.3907 23.3 31.4151Z" fill="white"/>
<path d="M18 24.6833C18.4 24.5857 18.6 25.0735 19 24.5857C18.2 23.6101 17.4 22.732 16.6 21.7564C16.2 21.3661 15.8 20.8783 15.9 21.7564C16 22.3418 9.8 27.3174 9.4 27.415C8.9 27.6101 8.6 27.0248 8.3 27.5126C9 28.3906 9.8 29.1711 10.5 30.0492C10.7 30.3419 11 30.6346 11.2 30.9272C11.5 31.2199 11.4 30.2443 11.4 30.3419C11.3 29.8541 11.9 29.4638 12.3 29.1711C13.8 27.8053 17.6 24.6833 18 24.6833Z" fill="white"/>
<path d="M9.2 23.8052C7.4 24.293 5.6 23.6101 5 21.854C4.5 20.0978 5.6 18.1466 7.1 17.171C8.5 16.1953 10.7 16.1953 11.5 17.9515C11.8 18.732 11.7 19.61 11.4 20.3905C11.2 20.8783 10.8 21.3661 11.5 21.6588C12.4 20.5856 13.2 19.5125 14.1 18.4393C13 17.8539 12.6 16.7807 11.8 15.9027C10.9 14.8295 9.7 13.8538 8.3 13.6587C5.4 13.2685 2.7 16.1953 2.5 18.732C2.4 20.1954 2.9 21.4637 3.7 22.6345C4.5 23.6101 5.6 24.1955 6.1 25.3662C6.4 25.4638 8.8 24.3906 9.4 24.0979C9.3 24.0003 9.3 23.8052 9.2 23.8052C8.5 24.0003 9.2 23.8052 9.2 23.8052Z" fill="white"/>
<path d="M48.5 59.3179C47.3 58.5374 44.5 54.7325 43.9 54.1471C43.8 54.0496 43.7 53.8544 43.6 53.7569C43.6 53.7569 43.3 53.952 43.4 53.952C43.2 54.0496 43.5 54.5374 43.3 54.8301C42.5 56.0008 37.5 59.7081 37.3 59.9033C36.7 60.2935 36.1 59.7081 35.8 60.196C36.5 61.074 38.6 63.6106 38.8 63.7082C39.3 63.8058 38.9 62.9277 39 62.7326C39.1 62.3423 41.6 60.3911 42.5 59.6106C42.8 59.3179 43.2 60.0008 43.4 60.2935C43.7 60.7813 43.9 61.2691 43.7 61.8545C43.6 62.2448 43 62.7326 43.4 63.0253C44 62.3423 45.8 60.2935 46 60.0984C46.3 59.8057 45.4 60.0984 45.5 60.0008C45.1 60.196 44.8 60.196 44.4 60.0008C44.3 59.9033 43.3 58.9277 43.4 58.8301C43.8 58.4398 44.4 57.8545 44.9 57.7569C45.8 57.5618 46.5 59.2203 46.6 59.8057C46.7 60.3911 46.7 60.9765 46.5 61.5618C46.4 61.9521 46 62.2448 46.5 62.4399C47.2 61.4643 47.9 60.5862 48.6 59.6106C48.8 59.4155 48.6 59.3179 48.5 59.3179C48.4 59.2203 48.7 59.3179 48.5 59.3179Z" fill="white"/>
<path d="M38.3 55.2203C40.5 53.3666 40.8 50.2446 39.1 48.0982C37.2 45.6592 33.7 45.0738 31.3 47.025C29.1 48.8787 28.8 51.9032 30.5 54.1471C32.5 56.7813 35.7 57.074 38.3 55.2203C39.5 54.3422 38.2 55.3178 38.3 55.2203ZM37.8 50.6348C37.2 52.0983 35.6 53.6593 34.1 54.2447C32.3 54.9276 31 53.4642 31.7 51.708C32.3 50.2446 33.9 48.6836 35.4 48.0982C37.3 47.4153 38.5 48.9763 37.8 50.6348C37.5 51.5129 37.9 50.4397 37.8 50.6348Z" fill="white"/>
<path d="M31.9 40.9762C32.4 41.0737 32.8 41.5615 33.2 40.9762C32.5 40.0981 31.7 39.22 31 38.4395C30.4 38.7322 31 38.9273 30.8 39.4152C30.6 39.8054 28.2 40.1957 27.6 40.2932C27.8 39.7078 28.5 37.7566 28.8 37.5615C29.3 37.1712 29.7 37.9517 30.1 37.4639C29.2 36.3907 28.3 35.3175 27.4 34.2444C27.1 33.8541 26.8 33.2687 26.4 33.5614C26.4 33.5614 26.4 35.0249 26.3 35.22C26.2 35.4151 25.4 38.7322 24.4 39.6103C23.9 40.0005 22.2 41.464 21.7 41.6591C21.2 41.8542 20.9 41.0737 20.5 41.6591C21.3 42.6347 22.2 43.6103 23 44.586C23.1 44.6835 23.6 45.464 23.8 45.464C24.3 45.5616 23.9 44.586 23.9 44.3908C24.1 44.0006 26.4 41.7566 27.4 41.5615C28.6 41.2688 30.4 40.781 31.9 40.9762C32.2 41.0737 31.5 40.9762 31.9 40.9762Z" fill="white"/>
<path d="M69.2 51.1226C69.4 51.708 69.5 52.3909 69.4 53.0739C69.3 53.9519 68.4 55.9032 67.2 55.3178C66 54.7324 65 53.6593 64 52.7812C64.8 51.9031 65.5 51.1226 66.9 51.5129C67.3 51.6104 67.6 51.5129 67.2 51.2202C66.8 51.0251 64.1 49.269 63.9 49.4641C63.6 49.7568 64.4 50.3421 64.1 50.9275C63.9 51.3178 63.5 51.708 63.2 52.0983C62.5 51.5129 61.3 50.8299 62.1 49.8543C62.6 49.1714 63.4 48.6836 64.2 48.586C64.8 48.4885 66 48.9763 66.2 48.3909C65.1 47.9031 64 47.4153 62.9 46.8299C63.1 47.6104 59.6 51.2202 58.8 52.1958C58.7 52.2934 58.1 52.7812 58.1 52.9763C58.1 53.3666 58.7 53.0739 58.8 53.0739C59.3 52.8788 65.6 58.0496 65.8 58.4398C65.9 58.7325 65.6 59.0252 65.8 59.1227C65.8 59.1227 66 59.3179 66.1 59.3179C66.5 58.8301 70.6 53.4641 71.5 53.269C70.7 52.0983 69.9 50.9275 69.1 49.6592C68.5 50.0495 69.1 50.7324 69.2 51.1226Z" fill="white"/>
<path d="M63 57.7569C60.9 56.4886 57.4 59.0252 56.9 59.2203C55.9 59.7081 55.1 58.7325 55.6 57.7569C56.1 56.9764 57 56.5861 57.9 56.4886C58.2 56.4886 59.3 56.6837 59.4 56.4886C59.5 56.2934 59.6 56.2934 59.4 56.1959C58.5 55.6105 57.7 55.0251 56.8 54.5373C56.6 55.6105 55.4 56.1959 54.7 56.8788C53.9 57.7569 53.2 58.7325 53.2 60.0008C53.2 61.074 53.9 62.0496 54.9 62.635C56 63.2204 57.2 62.7326 58.2 62.1472C58.8 61.7569 59.5 61.2691 60.1 60.9764C61.1 60.4886 62.4 60.8789 62.1 62.2448C61.8 63.3179 60.7 64.2936 59.7 64.4887C59.1 64.6838 58.4 64.5863 57.8 64.3911C57.4 64.2936 56.8 63.7082 56.6 64.2936C57.8 65.0741 58.9 65.9521 60.1 66.7326C60.2 65.9521 60.6 65.6594 61.2 65.1716C61.9 64.5863 62.6 63.9033 63.2 63.1228C64.4 61.4643 64.8 59.1228 63 57.7569Z" fill="white"/>
<path d="M63 57.757C64 58.2452 62.4 57.2688 63 57.757V57.757Z" fill="white"/>
<path d="M99.7 19.1222C99 19.8052 91.3 16.8783 90.7 16.3905C90.4 16.2929 90.4 15.1222 90 15.61C89.6 16.0978 89.2 16.5856 88.8 17.0734C88.4 17.5612 88 18.049 87.5 18.5368C87.2 18.8295 87 19.0247 87.5 19.2198C88.3 18.8295 92.9 26.3418 92.5 27.5126C91.8 27.9028 85.6 22.5369 85.4 22.2442C85.3 22.1466 85.7 21.2686 85.2 21.3661C85 21.3661 84.5 22.2442 84.3 22.4393C84 22.8296 83.7 23.1223 83.4 23.5125C83.7 24.0003 83.9 23.5125 84.4 23.5125C84.8 23.6101 86.2 24.7808 86.6 25.1711C85.9 25.1711 83.9 25.2686 83.7 25.2686C82.8 25.3662 83.3 24.5857 82.7 24.3906C81.9 25.2686 81.2 26.1467 80.4 27.1223C80 27.6101 79.5 28.1955 79.1 28.6833C79 28.7809 79.1 28.6833 79.2 28.7809C79.5 29.0736 79.3 28.976 79.8 28.7809C80.3 28.5858 86.4 33.5614 86.6 33.8541C87 34.3419 86.4 34.8297 87 35.0249C87.6 34.3419 88.2 33.5614 88.8 32.8785C88.9 32.7809 88.9 32.7809 88.8 32.6834C88.4 32.2931 88.3 32.8785 87.8 32.8785C87.3 32.7809 83.4 29.5614 81.9 28.3906C83.7 28.2931 89.2 28.0979 90.1 28.0979C90.4 28.0979 91.2 28.976 91.2 29.2687C91.1 29.6589 90.7 29.8541 91.3 30.0492C91.8 29.4638 92.3 28.976 92.8 28.3906L93 28.0979C93.1 28.0004 93.1 28.0004 93.2 27.8053L93.4 27.6101C93.8 27.1223 95.2 25.6589 95 25.4638C94.5 25.0735 94.3 25.9516 93.7 25.3662C93.4 25.1711 92.5 23.6101 92.3 23.2198C92 22.8296 92.9 22.3418 93.3 22.1466C94.1 21.6588 96.5 20.9759 96.8 22.4393C96.8 22.732 96.5 22.9271 96.7 23.1223C96.7 23.1223 96.9 23.3174 97 23.3174C97.2 23.1223 99.4 20.5857 100.3 19.4149C99.9 19.3173 99.8 19.2198 99.7 19.1222ZM92.3 21.2686C92.4 21.171 92.5 21.171 92.3 21.2686C92 21.4637 91.6 21.7564 91.3 22.0491C90.8 21.171 90.3 20.293 89.7 19.4149C90.9 19.9027 92.1 20.3905 93.2 20.8783C93 20.8783 92.7 21.0735 92.3 21.2686Z" fill="white"/>
<path d="M82.6 32.1956C80.2 30.2443 77 30.8297 75 32.9761C73.1 35.22 73.3 38.5371 75.6 40.3908C77.9 42.2445 81.3 41.7567 83.2 39.6103C85.1 37.3664 85 34.0492 82.6 32.1956ZM82.3 38.6347C81 39.903 78.9 38.7322 77.8 37.9517C76.7 37.1712 74.7 35.4151 75.9 33.9517C77 32.6834 79 33.7566 80.1 34.4395C81.3 35.22 83.5 36.9761 82.4 38.5371C82.5 38.4395 82.5 38.4395 82.3 38.6347Z" fill="white"/>
<path d="M82.6 32.1956C83.8 33.1721 82.3 32.0003 82.6 32.1956V32.1956Z" fill="white"/>
<path d="M82.3 38.6348C82.4 38.5371 82.4 38.5371 82.4 38.5371C82.3 38.6348 82.3 38.6348 82.3 38.6348Z" fill="white"/>
<path d="M76 41.0737C76.1 41.1713 76.3 41.2688 76 41.0737C73.1 38.9273 69.7 39.5127 67.5 42.1469C66.5 43.3177 65.5 44.4884 64.5 45.6592C64.9 46.147 65.3 45.5616 65.8 45.8543C66.2 46.147 72 50.83 72.1 51.1227C72.3 51.6105 71.8 51.6105 72.2 52.0007C72.4 52.0983 76.7 46.9275 77.1 45.9518C78 44.1957 77.4 42.2445 76 41.0737ZM74.7 47.708C74.5 48.0007 74.7 47.8055 74 48.3909C73.7 48.6836 67.6 43.8055 67.8 43.6103C68.6 42.7323 70.4 42.0493 71.4 42.342C73.6 42.7323 76.6 45.3665 74.7 47.708Z" fill="white"/>
<path d="M50.6 56.0983L50.9 55.7081L78.5 24.1954C71.6 25.0735 66.6 30.1467 59.9 29.0736C56.5 28.4882 56.4 26.6345 55.4 24.6832C54.7 23.2198 53.5 23.4149 51.9 22.8296C50.5 22.2442 49.6 21.171 46.7 21.7564C44.2 22.3418 43.9 26.1467 40.7 25.9516C39 25.854 38.9 23.5125 36.5 20.5856C30.2 13.1709 24.3 14.2441 20.3 21.0734L50.6 56.0983Z" fill="#491213"/>
<path d="M46.5 69.1717L50.6 62.8301L54.6 69.1717L50.6 75.5132L46.5 69.1717Z" fill="#23A9E1"/>
<path d="M23.3 31.5126C23.8 32.098 24.2 32.7809 24.1 33.5614C24 34.1468 23.2 35.1224 23.8 35.3176C24.5 34.4395 25.3 33.4639 26 32.5858C25.4 32.3907 20.6 26.9272 20.6 26.2443C19.5 26.8296 18.5 27.415 17.4 27.9028C17.6 28.5858 18.7 27.9028 19.3 27.9028C20.1 28.0004 20.7 28.4882 21.3 29.0736C19.6 30.4394 15.4 33.9517 14.9 34.0492C14.7 34.0492 13.8 33.4639 13.8 33.9517C13.8 34.2444 14.7 34.9273 14.8 35.1224C15.5 36.0005 16.3 36.8785 17 37.7566C17.6 37.4639 16.9 37.0737 17.2 36.5859C17.5 36.1956 22.1 32.3907 23.3 31.5126Z" fill="white"/>
<path d="M18 24.6833C18.4 24.5857 18.6 25.0735 19 24.5857C18.2 23.6101 17.4 22.732 16.6 21.7564C16.2 21.3661 15.8 20.8783 15.9 21.7564C16 22.3418 9.8 27.3174 9.4 27.415C8.9 27.6101 8.6 27.0248 8.3 27.5126C9 28.3906 9.8 29.1711 10.5 30.0492C10.7 30.3419 11 30.6346 11.2 30.9272C11.5 31.2199 11.4 30.2443 11.4 30.3419C11.3 29.8541 11.9 29.4638 12.3 29.1711C13.8 27.9028 17.6 24.6833 18 24.6833Z" fill="white"/>
<path d="M9.2 23.8052C7.4 24.293 5.5 23.6101 5 21.854C4.5 20.0978 5.6 18.1466 7.1 17.171C8.5 16.1953 10.7 16.1953 11.5 17.9515C11.8 18.732 11.7 19.61 11.4 20.3905C11.2 20.8783 10.8 21.3661 11.5 21.6588C12.4 20.5856 13.2 19.5125 14.1 18.4393C13 17.8539 12.6 16.7807 11.8 15.9027C10.9 14.8295 9.7 13.8538 8.3 13.6587C5.4 13.2685 2.7 16.1953 2.5 18.732C2.4 20.1954 2.9 21.4637 3.7 22.6345C4.5 23.6101 5.6 24.1955 6.1 25.3662C6.4 25.4638 8.8 24.3906 9.4 24.0979C9.3 24.0003 9.3 23.9028 9.2 23.8052C8.5 24.0003 9.2 23.8052 9.2 23.8052Z" fill="white"/>
<path d="M48.5 59.3179C47.3 58.5374 44.5 54.7325 43.9 54.1471C43.8 54.0496 43.7 53.8544 43.6 53.7569C43.6 53.7569 43.3 53.952 43.4 53.952C43.2 54.0496 43.5 54.5374 43.3 54.8301C42.5 56.0008 37.5 59.7081 37.3 59.9033C36.7 60.2935 36.1 59.7081 35.8 60.196C36.5 61.074 38.6 63.6106 38.8 63.7082C39.3 63.8058 38.9 62.9277 39 62.7326C39.1 62.3423 41.6 60.3911 42.5 59.6106C42.8 59.3179 43.2 60.0008 43.4 60.2935C43.7 60.7813 43.9 61.2691 43.7 61.8545C43.6 62.2448 43 62.7326 43.4 63.0253C44 62.3423 45.8 60.2935 46 60.0984C46.3 59.8057 45.4 60.0984 45.5 60.0008C45.1 60.196 44.8 60.196 44.4 60.0008C44.3 59.9033 43.3 58.9277 43.4 58.8301C43.8 58.4398 44.4 57.8545 44.9 57.7569C45.8 57.5618 46.5 59.2203 46.6 59.8057C46.7 60.3911 46.7 60.9765 46.5 61.5618C46.4 61.9521 46 62.2448 46.5 62.4399C47.2 61.4643 47.9 60.5862 48.6 59.6106C48.8 59.4155 48.6 59.3179 48.5 59.3179C48.4 59.2203 48.7 59.3179 48.5 59.3179Z" fill="white"/>
<path d="M38.3 55.2203C40.5 53.3666 40.8 50.2446 39.1 48.0982C37.2 45.6592 33.7 45.0738 31.3 47.025C29.1 48.8787 28.8 51.9032 30.5 54.1471C32.5 56.7813 35.7 57.074 38.3 55.2203C39.5 54.3422 38.2 55.3178 38.3 55.2203ZM37.8 50.6348C37.2 52.0983 35.6 53.6593 34.1 54.2447C32.3 54.9276 31 53.4642 31.7 51.708C32.4 50.2446 33.9 48.6836 35.4 48.0982C37.3 47.4153 38.5 48.9763 37.8 50.6348C37.4 51.5129 37.9 50.4397 37.8 50.6348Z" fill="white"/>
<path d="M31.9 40.9762C32.4 41.0737 32.8 41.464 33.2 40.9762C32.5 40.0981 31.7 39.22 31 38.4395C30.4 38.7322 31 38.9273 30.8 39.4152C30.6 39.8054 28.2 40.1957 27.6 40.2932C27.8 39.7078 28.5 37.7566 28.8 37.5615C29.3 37.1712 29.7 37.9517 30.1 37.4639C29.2 36.3907 28.3 35.3175 27.4 34.2444C27.1 33.8541 26.8 33.2687 26.4 33.5614C26.4 33.5614 26.4 35.0249 26.3 35.22C26.2 35.4151 25.4 38.7322 24.4 39.6103C23.9 40.0005 22.2 41.464 21.7 41.6591C21.2 41.8542 20.9 41.0737 20.5 41.6591C21.3 42.6347 22.2 43.6103 23 44.586C23.1 44.6835 23.6 45.464 23.8 45.464C24.3 45.5616 23.9 44.586 23.9 44.3908C24.1 44.0006 26.4 41.7566 27.4 41.5615C28.6 41.3664 30.4 40.8786 31.9 40.9762C32.2 41.0737 31.5 40.9762 31.9 40.9762Z" fill="white"/>
<path d="M25.6 22.3418C21.6 22.1466 23.2 18.4393 26 17.6588C28.6 16.8783 34.1 19.3173 35.8 20.9759C33 21.8539 29.4 21.6588 26.4 21.8539C26.2 18.732 25.4 19.8051 25.6 22.3418Z" fill="#DC6243"/>
<path d="M26.6 27.0247C24.6 25.4638 25.2 21.854 28.4 23.0247C32.4 25.0735 27.5 26.1467 26.6 27.0247Z" fill="#DC6243"/>
<path d="M35.1 34.537C26.5 34.4395 32.3 21.5613 35.2 22.3418C38.6 23.4149 38.2 34.6346 35.1 34.537Z" fill="#DC6243"/>
<path d="M41.2 30.3419C40.4 32.7809 38.8 33.2687 39 30.2443C39.2 26.8296 41.5 27.6101 43.9 26.3418C45.9 25.2686 47 21.2686 50.5 23.6101C52.1 24.6833 53.9 23.8052 54.4 25.3662C54.4 25.2686 49.9 35.4151 52.4 35.4151C47.4 35.4151 49.6 29.6589 51.5 25.7564C49.7 26.6345 46.7 32.2931 49.1 33.1712C47.8 34.8297 43.9 36.9761 41.9 35.4151C40.4 34.3419 41.2 32.2931 41.2 30.3419Z" fill="#DC6243"/>
<path d="M45.3 39.7079C41.8 40.6835 37.2 38.5371 42.8 37.4639C46.3 36.781 50 38.1469 45.3 39.7079C45.4 39.7079 45.2 39.7079 45.3 39.7079Z" fill="#DC6243"/>
<path d="M49.7 39.6103C49 37.9517 50.3 36.0981 52.4 37.4639C54.2 38.6347 51.5 40.4883 49.7 39.6103Z" fill="#DC6243"/>
<path d="M46.7 44.0982C44.3 43.4152 36.2 43.5128 41.5 41.3664C43.2 40.781 51.7 41.5615 46.7 44.0982Z" fill="#DC6243"/>
<path d="M49.9 43.8055C49.9 42.8298 49.4 41.1713 51.3 41.9518C53.5 42.7323 49.9 44.4884 49.9 43.8055C49.9 43.8055 49.9 43.6103 49.9 43.8055Z" fill="#DC6243"/>
<path d="M57.2 47.3177C55.8 46.147 54.3 46.0494 53 47.3177C51.2 44.0981 44.7 45.1713 41.6 44.6835C43.2 48.6836 56.4 49.4641 57.2 47.3177Z" fill="#DC6243"/>
<path d="M55.3 49.7568C52.1 49.6592 48.6 49.1714 45.7 49.8543C47.6 50.3422 52.1 51.6105 47.9 52.6836C49.4 54.83 51.9 54.6349 53.5 52.7812C52.8 52.4885 52.5 52.0983 51.9 51.708C53.5 51.4153 55.1 50.5373 55.3 49.7568Z" fill="#DC6243"/>
<path d="M58.9 45.9518C53.6 42.9274 54.9 40.6835 59.3 38.5371C61.6 37.4639 66.6 33.4638 68.7 34.7322C65.4 38.5371 62.1 42.2445 58.9 45.9518Z" fill="#DC6243"/>
<path d="M55.1 38.8298C50.6 34.3419 61.8 34.7322 63.6 33.1712C64.9 33.5614 74.4 25.0735 76.7 25.6589C75 27.5126 71.5 33.5614 68.9 33.5614C66.9 33.5614 64.9 33.2687 63.4 34.6346C61.2 36.6834 57.5 37.6591 55.1 38.8298Z" fill="#F49774"/>
<path d="M56.6 33.3663C54.1 34.6346 51.8 29.5614 56.1 30.0492C58.9 30.3419 61.8 29.8541 64.4 30.2443C62.4 32.4882 59.7 33.7565 56.6 33.3663Z" fill="#F4B1A4"/>
<path d="M69.2 51.2202C69.4 51.8056 69.5 52.4885 69.4 53.1715C69.3 54.0495 68.4 56.0008 67.2 55.4154C66 54.83 65 53.7568 64 52.8788C64.8 52.0007 65.5 51.2202 66.9 51.6105C67.3 51.708 67.6 51.6105 67.2 51.3178C66.8 51.1227 64.1 49.3665 63.9 49.5617C63.6 49.8544 64.4 50.4397 64.1 51.0251C63.9 51.4153 63.5 51.8056 63.2 52.1958C62.5 51.6105 61.3 50.9275 62.1 49.9519C62.6 49.269 63.4 48.7812 64.2 48.6836C64.8 48.586 66 49.0739 66.2 48.4885C65.1 48.0007 64 47.5129 62.9 46.9275C63.1 47.708 59.6 51.3178 58.8 52.2934C58.7 52.391 58.1 52.8788 58.1 53.0739C58.1 53.4642 58.7 53.1715 58.8 53.1715C59.3 52.9763 65.6 58.1471 65.8 58.5374C65.9 58.8301 65.6 59.1227 65.8 59.2203C65.8 59.2203 66 59.4154 66.1 59.4154C66.5 58.9276 70.6 53.5617 71.5 53.3666C70.7 52.1958 69.9 51.0251 69.1 49.7568C68.5 50.0495 69.1 50.7324 69.2 51.2202Z" fill="white"/>
<path d="M63 57.7569C60.9 56.4886 57.4 59.0252 56.9 59.2203C55.9 59.7081 55.1 58.7325 55.6 57.7569C56.1 56.9764 57 56.5861 57.9 56.4886C58.2 56.4886 59.2 56.6837 59.4 56.4886C59.5 56.2934 59.6 56.2934 59.4 56.1959C58.5 55.6105 57.7 55.0251 56.8 54.5373C56.6 55.6105 55.4 56.1959 54.7 56.8788C53.9 57.7569 53.2 58.7325 53.2 60.0008C53.2 61.074 53.9 62.0496 54.9 62.635C56 63.2204 57.2 62.7326 58.2 62.1472C58.8 61.7569 59.5 61.2691 60.1 60.9764C61.1 60.4886 62.4 60.8789 62.1 62.2448C61.8 63.3179 60.7 64.2936 59.7 64.4887C59.1 64.6838 58.4 64.5863 57.8 64.3911C57.4 64.2936 56.8 63.7082 56.6 64.2936C57.8 65.0741 58.9 65.9521 60.1 66.7326C60.2 65.9521 60.6 65.6594 61.2 65.1716C61.9 64.5863 62.6 63.9033 63.2 63.1228C64.4 61.4643 64.8 59.1228 63 57.7569Z" fill="white"/>
<path d="M63 57.7569C64 58.3423 62.4 57.269 63 57.7569V57.7569Z" fill="white"/>
<path d="M99.7 19.1222C99 19.8052 91.3 16.8783 90.7 16.3905C90.4 16.2929 90.4 15.1222 90 15.61C89.6 16.0978 89.2 16.5856 88.8 17.0734C88.4 17.5612 88 18.049 87.5 18.5368C87.2 18.8295 87 19.0247 87.5 19.2198C88.3 18.8295 92.9 26.3418 92.5 27.5126C91.8 27.9028 85.6 22.5369 85.4 22.2442C85.3 22.1466 85.7 21.2686 85.2 21.3661C85 21.3661 84.5 22.2442 84.3 22.4393C84 22.8296 83.7 23.1223 83.4 23.5125C83.7 24.0003 83.9 23.5125 84.4 23.5125C84.8 23.6101 86.2 24.7808 86.6 25.1711C85.9 25.1711 83.9 25.2686 83.7 25.2686C82.8 25.3662 83.3 24.5857 82.7 24.3906C81.9 25.2686 81.2 26.1467 80.4 27.1223C80 27.6101 79.5 28.1955 79.1 28.6833C79 28.7809 79.1 28.6833 79.1 28.7809C79.4 29.0736 79.2 28.976 79.7 28.7809C80.2 28.5858 86.3 33.5614 86.5 33.8541C86.9 34.2444 86.3 34.8297 86.9 35.0249C87.5 34.3419 88.1 33.5614 88.7 32.8785C88.8 32.7809 88.8 32.7809 88.7 32.6834C88.3 32.2931 88.2 32.8785 87.7 32.8785C87.2 32.7809 83.3 29.5614 81.8 28.3906C83.6 28.2931 89.1 28.0979 90 28.0979C90.3 28.0979 91.1 28.976 91.1 29.2687C91 29.6589 90.6 29.8541 91.2 30.0492C91.7 29.4638 92.2 28.976 92.7 28.3906L92.9 28.0979C93 28.0004 93 28.0004 93.1 27.8053L93.3 27.6101C93.7 27.1223 95.1 25.6589 94.9 25.5613C94.4 25.1711 94.2 26.0491 93.6 25.4638C93.3 25.2686 92.4 23.7076 92.2 23.3174C91.9 22.9271 92.8 22.4393 93.2 22.2442C94 21.7564 96.4 21.0735 96.7 22.5369C96.7 22.8296 96.4 23.0247 96.6 23.2198C96.6 23.2198 96.8 23.415 96.9 23.415C97.1 23.2198 99.3 20.6832 100.2 19.5125C99.9 19.3173 99.8 19.2198 99.7 19.1222ZM92.3 21.2686C92.4 21.2686 92.5 21.171 92.3 21.2686C92 21.4637 91.6 21.7564 91.3 22.0491C90.8 21.171 90.3 20.293 89.7 19.4149C90.9 19.9027 92.1 20.3905 93.2 20.8783C93 20.9759 92.7 21.0735 92.3 21.2686Z" fill="white"/>
<path d="M82.6 32.1956C80.2 30.2443 77 30.8297 75 32.9761C73.1 35.22 73.3 38.5371 75.6 40.3908C77.9 42.2445 81.3 41.7567 83.2 39.6103C85.1 37.3664 85 34.0492 82.6 32.1956ZM82.3 38.6347C82.3 38.6347 82.3 38.7322 82.3 38.6347C81 39.903 78.9 38.7322 77.8 37.9517C76.7 37.1712 74.7 35.4151 75.9 33.9517C77 32.6834 79 33.7566 80.1 34.4395C81.3 35.22 83.5 36.9761 82.4 38.5371C82.5 38.4395 82.5 38.4395 82.3 38.6347Z" fill="white"/>
<path d="M82.6 32.1956C83.8 33.1721 82.3 32.0003 82.6 32.1956V32.1956Z" fill="white"/>
<path d="M82.3 38.7323C82.3 38.6347 82.3 38.6347 82.3 38.7323C82.4 38.6347 82.4 38.6347 82.4 38.6347C82.3 38.6347 82.3 38.7323 82.3 38.7323Z" fill="white"/>
<path d="M76 41.0737C76.1 41.1713 76.3 41.3664 76 41.0737C73.1 38.9273 69.7 39.5127 67.5 42.1469C66.5 43.3177 65.5 44.4884 64.5 45.6592C64.9 46.147 65.3 45.5616 65.8 45.8543C66.2 46.147 72 50.83 72.1 51.1227C72.3 51.6105 71.8 51.6105 72.2 52.0007C72.4 52.0983 76.7 46.9275 77.1 45.9518C78 44.1957 77.4 42.342 76 41.0737ZM74.7 47.708C74.5 48.0007 74.7 47.8055 74 48.3909C73.7 48.6836 67.6 43.8055 67.8 43.6103C68.6 42.7323 70.4 42.0493 71.4 42.342C73.6 42.8298 76.6 45.464 74.7 47.708Z" fill="white"/>
</svg>
